<svg xmlns="http://www.w3.org/2000/svg" width="1200" height="630" viewBox="0 0 1200 630">
  <defs>
    <linearGradient id="bg" x1="0" y1="0" x2="1200" y2="630" gradientUnits="userSpaceOnUse">
      <stop offset="0" stop-color="#0B1220"/>
      <stop offset="1" stop-color="#0D1828"/>
    </linearGradient>
    <linearGradient id="line" x1="0" y1="0" x2="1200" y2="0" gradientUnits="userSpaceOnUse">
      <stop offset="0" stop-color="#D4AF37" stop-opacity="0"/>
      <stop offset="0.5" stop-color="#D4AF37" stop-opacity="0.55"/>
      <stop offset="1" stop-color="#D4AF37" stop-opacity="0"/>
    </linearGradient>
  </defs>

  <rect width="1200" height="630" fill="url(#bg)"/>

  <g opacity="0.05" stroke="#D4AF37" stroke-width="1">
    <path d="M0 105 H1200 M0 210 H1200 M0 315 H1200 M0 420 H1200 M0 525 H1200"/>
    <path d="M100 0 V630 M250 0 V630 M400 0 V630 M550 0 V630 M700 0 V630 M850 0 V630 M1000 0 V630 M1150 0 V630"/>
  </g>

  <rect x="0" y="0" width="1200" height="2" fill="url(#line)"/>
  <rect x="0" y="628" width="1200" height="2" fill="url(#line)"/>

  <!-- Logo mark -->
  <g transform="translate(500,190)">
    <rect width="60" height="60" rx="13" fill="#D4AF37"/>
    <rect x="15" y="32" width="7.5" height="15" rx="2.5" fill="#070E1A"/>
    <rect x="26.25" y="22.5" width="7.5" height="24.5" rx="2.5" fill="#070E1A"/>
    <rect x="37.5" y="13" width="7.5" height="34" rx="2.5" fill="#070E1A"/>
  </g>

  <text x="600" y="320" text-anchor="middle" font-family="Arial, Helvetica, sans-serif" font-weight="700" font-size="64" letter-spacing="2" fill="#ffffff">BET<tspan fill="#D4AF37">LAB</tspan></text>

  <text x="600" y="368" text-anchor="middle" font-family="Arial, Helvetica, sans-serif" font-weight="400" font-size="22" letter-spacing="4" fill="#D4AF37">FOOTBALL INTELLIGENCE, REFINED</text>

  <g font-family="Arial, Helvetica, sans-serif" fill="rgba(237,240,245,0.4)" font-size="15" letter-spacing="1">
    <text x="600" y="430" text-anchor="middle">DAILY PREDICTIONS · STATISTICAL MODELLING · VERIFIED RESULTS</text>
  </g>
</svg>
